<mxfile host="app.diagrams.net" agent="Mozilla/5.0 (Windows NT 10.0; Win64; x64) AppleWebKit/537.36 (KHTML, like Gecko) Chrome/140.0.0.0 Safari/537.36 Edg/140.0.0.0" version="28.1.2">
  <diagram name="PÃ¡gina-1" id="ElHuQjaz6n3vPtM-nPcP">
    <mxGraphModel grid="1" page="1" gridSize="10" guides="1" tooltips="1" connect="1" arrows="1" fold="1" pageScale="1" pageWidth="827" pageHeight="1169" math="0" shadow="0">
      <root>
        <mxCell id="0" />
        <mxCell id="1" parent="0" />
        <mxCell id="KhivbM83kpZXLupFgvCl-2" value="" style="whiteSpace=wrap;html=1;fillColor=default;fontFamily=Segoe UI;" vertex="1" parent="1">
          <mxGeometry x="10" y="10" width="1390" height="770" as="geometry" />
        </mxCell>
        <mxCell id="KhivbM83kpZXLupFgvCl-5" value="" style="whiteSpace=wrap;html=1;fillColor=none;fontFamily=Segoe UI;" vertex="1" parent="1">
          <mxGeometry x="320" y="176" width="1030" height="554" as="geometry" />
        </mxCell>
        <mxCell id="s6ca1SVLhnaKsL50BTrl-5" value="" style="whiteSpace=wrap;html=1;fillColor=none;fontFamily=Segoe UI;" vertex="1" parent="1">
          <mxGeometry x="839" y="240" width="460" height="310" as="geometry" />
        </mxCell>
        <mxCell id="KhivbM83kpZXLupFgvCl-1" value="&lt;font style=&quot;font-size: 24px;&quot;&gt;&lt;b style=&quot;&quot;&gt;New York Times&#39;s Top Stories&lt;/b&gt;&lt;/font&gt;&lt;div&gt;&lt;font style=&quot;font-size: 16px;&quot;&gt;Data Pipeline&lt;/font&gt;&lt;/div&gt;" style="text;html=1;align=left;verticalAlign=middle;whiteSpace=wrap;rounded=0;spacingTop=0;spacing=2;fontFamily=Segoe UI;" vertex="1" parent="1">
          <mxGeometry x="45" y="40" width="600" height="30" as="geometry" />
        </mxCell>
        <mxCell id="KhivbM83kpZXLupFgvCl-6" value="API GET Request" style="edgeStyle=orthogonalEdgeStyle;html=1;endArrow=block;elbow=vertical;startArrow=none;endFill=1;strokeColor=#545B64;rounded=0;exitX=1;exitY=0;exitDx=0;exitDy=15;exitPerimeter=0;entryX=0;entryY=0.5;entryDx=0;entryDy=0;fontFamily=Segoe UI;fontSize=16;" edge="1" parent="1" source="KhivbM83kpZXLupFgvCl-3" target="KhivbM83kpZXLupFgvCl-18">
          <mxGeometry x="-0.0022" width="100" relative="1" as="geometry">
            <mxPoint x="320" y="434" as="sourcePoint" />
            <mxPoint x="380" y="644" as="targetPoint" />
            <mxPoint as="offset" />
          </mxGeometry>
        </mxCell>
        <mxCell id="KhivbM83kpZXLupFgvCl-13" value="" style="sketch=0;points=[[0,0,0],[0.25,0,0],[0.5,0,0],[0.75,0,0],[1,0,0],[0,1,0],[0.25,1,0],[0.5,1,0],[0.75,1,0],[1,1,0],[0,0.25,0],[0,0.5,0],[0,0.75,0],[1,0.25,0],[1,0.5,0],[1,0.75,0]];outlineConnect=0;fontColor=#232F3E;fillColor=#ED7100;strokeColor=#ffffff;dashed=0;verticalLabelPosition=bottom;verticalAlign=top;align=center;html=1;fontSize=12;fontStyle=0;aspect=fixed;shape=mxgraph.aws4.resourceIcon;resIcon=mxgraph.aws4.lambda;fontFamily=Segoe UI;" vertex="1" parent="1">
          <mxGeometry x="352" y="414" width="40" height="40" as="geometry" />
        </mxCell>
        <mxCell id="KhivbM83kpZXLupFgvCl-14" value="" style="outlineConnect=0;dashed=0;verticalLabelPosition=bottom;verticalAlign=top;align=center;html=1;shape=mxgraph.aws3.cloud_2;aspect=fixed;labelBackgroundColor=light-dark(#FFFFFF,#FFFFFF);fillColor=light-dark(#ed7100, #36210a);fontFamily=Segoe UI;strokeColor=#d79b00;" vertex="1" parent="1">
          <mxGeometry x="321" y="177" width="40" height="40" as="geometry" />
        </mxCell>
        <mxCell id="KhivbM83kpZXLupFgvCl-15" value="&lt;div&gt;&lt;span style=&quot;background-color: transparent; color: light-dark(rgb(0, 0, 0), rgb(255, 255, 255));&quot;&gt;Lambda Function&lt;/span&gt;&lt;/div&gt;" style="text;html=1;align=center;verticalAlign=middle;whiteSpace=wrap;rounded=0;fontFamily=Segoe UI;" vertex="1" parent="1">
          <mxGeometry x="382" y="419" width="140" height="30" as="geometry" />
        </mxCell>
        <mxCell id="KhivbM83kpZXLupFgvCl-17" value="" style="image;aspect=fixed;html=1;points=[];align=center;fontSize=12;image=img/lib/azure2/analytics/Azure_Databricks.svg;fontFamily=Segoe UI;imageBackground=default;" vertex="1" parent="1">
          <mxGeometry x="849" y="250" width="25.77" height="27.9" as="geometry" />
        </mxCell>
        <mxCell id="KhivbM83kpZXLupFgvCl-18" value="Raw Data Layer" style="rounded=0;whiteSpace=wrap;html=1;fontFamily=Segoe UI;fontSize=16;fillColor=#f5f5f5;strokeColor=#666666;fontColor=#333333;" vertex="1" parent="1">
          <mxGeometry x="574" y="364" width="185" height="60" as="geometry" />
        </mxCell>
        <mxCell id="KhivbM83kpZXLupFgvCl-10" value="" style="sketch=0;points=[[0,0,0],[0.25,0,0],[0.5,0,0],[0.75,0,0],[1,0,0],[0,1,0],[0.25,1,0],[0.5,1,0],[0.75,1,0],[1,1,0],[0,0.25,0],[0,0.5,0],[0,0.75,0],[1,0.25,0],[1,0.5,0],[1,0.75,0]];outlineConnect=0;fontColor=#232F3E;fillColor=#7AA116;strokeColor=#ffffff;dashed=0;verticalLabelPosition=bottom;verticalAlign=top;align=center;html=1;fontSize=12;fontStyle=0;aspect=fixed;shape=mxgraph.aws4.resourceIcon;resIcon=mxgraph.aws4.s3;fontFamily=Segoe UI;" vertex="1" parent="1">
          <mxGeometry x="741.5" y="404" width="43" height="43" as="geometry" />
        </mxCell>
        <mxCell id="KhivbM83kpZXLupFgvCl-11" value="&lt;div&gt;S3 Bucket&lt;/div&gt;" style="text;html=1;align=center;verticalAlign=middle;whiteSpace=wrap;rounded=0;fontFamily=Segoe UI;" vertex="1" parent="1">
          <mxGeometry x="727" y="447" width="72" height="30" as="geometry" />
        </mxCell>
        <mxCell id="s6ca1SVLhnaKsL50BTrl-4" value="AWS Cloud" style="text;html=1;align=center;verticalAlign=middle;whiteSpace=wrap;rounded=0;fontFamily=Segoe UI;fontSize=16;" vertex="1" parent="1">
          <mxGeometry x="370" y="181" width="100" height="30" as="geometry" />
        </mxCell>
        <mxCell id="s6ca1SVLhnaKsL50BTrl-6" value="Databricks" style="text;html=1;align=center;verticalAlign=middle;whiteSpace=wrap;rounded=0;fontFamily=Segoe UI;fontSize=16;" vertex="1" parent="1">
          <mxGeometry x="879" y="248.95" width="100" height="30" as="geometry" />
        </mxCell>
        <mxCell id="s6ca1SVLhnaKsL50BTrl-7" value="Bronze Data Layer" style="rounded=0;whiteSpace=wrap;html=1;fontFamily=Segoe UI;fontSize=16;fillColor=#ffe6cc;strokeColor=#d79b00;" vertex="1" parent="1">
          <mxGeometry x="1079" y="365" width="185" height="60" as="geometry" />
        </mxCell>
        <mxCell id="s6ca1SVLhnaKsL50BTrl-9" value="Ingestion pipeline" style="edgeStyle=orthogonalEdgeStyle;html=1;endArrow=block;elbow=vertical;startArrow=none;endFill=1;strokeColor=#545B64;rounded=0;exitX=1;exitY=0.5;exitDx=0;exitDy=0;entryX=0;entryY=0.5;entryDx=0;entryDy=0;fontFamily=Segoe UI;fontSize=16;" edge="1" parent="1" source="KhivbM83kpZXLupFgvCl-18" target="s6ca1SVLhnaKsL50BTrl-7">
          <mxGeometry x="-0.0033" width="100" relative="1" as="geometry">
            <mxPoint x="649" y="520" as="sourcePoint" />
            <mxPoint x="1019" y="520" as="targetPoint" />
            <mxPoint as="offset" />
          </mxGeometry>
        </mxCell>
        <mxCell id="s6ca1SVLhnaKsL50BTrl-14" value="" style="shape=image;html=1;verticalAlign=top;verticalLabelPosition=bottom;labelBackgroundColor=#ffffff;imageAspect=0;aspect=fixed;image=https://icons.diagrams.net/icon-cache1/Long_shadow_web_icons-2008/python-943.svg" vertex="1" parent="1">
          <mxGeometry x="860" y="412" width="62" height="62" as="geometry" />
        </mxCell>
        <mxCell id="s6ca1SVLhnaKsL50BTrl-15" value="" style="sketch=0;points=[[0,0,0],[0.25,0,0],[0.5,0,0],[0.75,0,0],[1,0,0],[0,1,0],[0.25,1,0],[0.5,1,0],[0.75,1,0],[1,1,0],[0,0.25,0],[0,0.5,0],[0,0.75,0],[1,0.25,0],[1,0.5,0],[1,0.75,0]];outlineConnect=0;fontColor=#232F3E;fillColor=#7AA116;strokeColor=#ffffff;dashed=0;verticalLabelPosition=bottom;verticalAlign=top;align=center;html=1;fontSize=12;fontStyle=0;aspect=fixed;shape=mxgraph.aws4.resourceIcon;resIcon=mxgraph.aws4.s3;fontFamily=Segoe UI;" vertex="1" parent="1">
          <mxGeometry x="1241.5" y="404" width="43" height="43" as="geometry" />
        </mxCell>
        <mxCell id="s6ca1SVLhnaKsL50BTrl-16" value="&lt;div&gt;S3 Bucket&lt;/div&gt;" style="text;html=1;align=center;verticalAlign=middle;whiteSpace=wrap;rounded=0;fontFamily=Segoe UI;" vertex="1" parent="1">
          <mxGeometry x="1227" y="447" width="72" height="30" as="geometry" />
        </mxCell>
        <mxCell id="s6ca1SVLhnaKsL50BTrl-17" value="Python code" style="text;html=1;align=center;verticalAlign=middle;whiteSpace=wrap;rounded=0;" vertex="1" parent="1">
          <mxGeometry x="951" y="420" width="80" height="35" as="geometry" />
        </mxCell>
        <mxCell id="s6ca1SVLhnaKsL50BTrl-23" value="Executes daily&amp;nbsp;&lt;div&gt;at&amp;nbsp;&lt;span style=&quot;background-color: transparent; color: light-dark(rgb(0, 0, 0), rgb(255, 255, 255));&quot;&gt;19 p.m (UTC)&lt;/span&gt;&lt;/div&gt;" style="text;html=1;align=center;verticalAlign=middle;whiteSpace=wrap;rounded=0;fontFamily=Segoe UI;" vertex="1" parent="1">
          <mxGeometry x="352" y="470" width="140" height="30" as="geometry" />
        </mxCell>
        <mxCell id="s6ca1SVLhnaKsL50BTrl-24" value="Executes daily&amp;nbsp;&lt;div&gt;at 19:10 pm (UTC)&lt;/div&gt;" style="text;html=1;align=center;verticalAlign=middle;whiteSpace=wrap;rounded=0;fontFamily=Segoe UI;" vertex="1" parent="1">
          <mxGeometry x="860" y="490" width="151" height="30" as="geometry" />
        </mxCell>
        <mxCell id="3-xc-dx4xLO0Wtygw8XD-3" value="" style="group" connectable="0" vertex="1" parent="1">
          <mxGeometry x="45" y="349.73" width="213" height="88.54000000000002" as="geometry" />
        </mxCell>
        <mxCell id="3-xc-dx4xLO0Wtygw8XD-1" value="New York Times&amp;nbsp;&lt;div&gt;API&lt;/div&gt;" style="rounded=0;whiteSpace=wrap;html=1;fontFamily=Segoe UI;fontSize=16;fillColor=#f5f5f5;strokeColor=#666666;fontColor=#333333;" vertex="1" parent="3-xc-dx4xLO0Wtygw8XD-3">
          <mxGeometry width="185" height="60" as="geometry" />
        </mxCell>
        <mxCell id="KhivbM83kpZXLupFgvCl-3" value="" style="shape=cylinder3;whiteSpace=wrap;html=1;boundedLbl=1;backgroundOutline=1;size=15;fontFamily=Segoe UI;aspect=fixed;" vertex="1" parent="3-xc-dx4xLO0Wtygw8XD-3">
          <mxGeometry x="165" y="24.5" width="48" height="64.04" as="geometry" />
        </mxCell>
      </root>
    </mxGraphModel>
  </diagram>
</mxfile>
